<?xml version="1.0" encoding="UTF-8"?>
<svg width="15px" height="15px" viewBox="0 0 15 15" version="1.1" xmlns="http://www.w3.org/2000/svg" xmlns:xlink="http://www.w3.org/1999/xlink">
    <!-- Generator: Sketch 41.2 (35397) - http://www.bohemiancoding.com/sketch -->
    <title>magnifier-icon@2x</title>
    <desc>Created with Sketch.</desc>
    <defs></defs>
    <g id="Project" stroke="none" stroke-width="1" fill="none" fill-rule="evenodd">
        <g id="Issues-list" transform="translate(-67.000000, -18.000000)" fill="#6A6273">
            <g id="Header">
                <g id="Search-bar" transform="translate(59.000000, 10.000000)">
                    <g id="magnifier" transform="translate(8.000000, 8.000000)">
                        <path d="M14.15175,14.3715 L9.6945,9.5085 C10.69875,8.45775 11.25075,7.08375 11.25075,5.625 C11.25075,4.12275 10.66575,2.70975 9.603,1.64775 C8.54025,0.58575 7.128,0 5.62575,0 C4.1235,0 2.7105,0.585 1.6485,1.64775 C0.5865,2.7105 0.00075,4.12275 0.00075,5.625 C0.00075,7.12725 0.58575,8.54025 1.6485,9.60225 C2.71125,10.66425 4.1235,11.25 5.62575,11.25 C6.92025,11.25 8.14725,10.81575 9.14175,10.01625 L13.599,14.8785 C13.67325,14.9595 13.77375,15 13.87575,15 C13.9665,15 14.05725,14.96775 14.12925,14.90175 C14.28225,14.7615 14.292,14.5245 14.1525,14.37225 L14.15175,14.3715 Z M0.75,5.625 C0.75,2.937 2.937,0.75 5.625,0.75 C8.313,0.75 10.5,2.937 10.5,5.625 C10.5,8.313 8.313,10.5 5.625,10.5 C2.937,10.5 0.75,8.313 0.75,5.625 Z" id="magnifier-icon"></path>
                    </g>
                </g>
            </g>
        </g>
    </g>
</svg>