<?xml version="1.0" encoding="UTF-8"?>
<svg width="20px" height="15px" viewBox="0 0 20 15" version="1.1" xmlns="http://www.w3.org/2000/svg" xmlns:xlink="http://www.w3.org/1999/xlink">
    <!-- Generator: Sketch 41.2 (35397) - http://www.bohemiancoding.com/sketch -->
    <title>notifications-inbox</title>
    <desc>Created with Sketch.</desc>
    <defs></defs>
    <g id="Project" stroke="none" stroke-width="1" fill="none" fill-rule="evenodd">
        <g id="Issues-list" transform="translate(-915.000000, -18.000000)" fill="#6A6273">
            <g id="Header">
                <g id="Notifications" transform="translate(915.000000, 17.000000)">
                    <path d="M19.557,8.383 L16.859,2.215 C16.561,1.533 15.744,0.999 15,0.999 L5,0.999 C4.256,0.999 3.439,1.533 3.141,2.215 L0.443,8.383 C0.195,8.951 0,9.88 0,10.5 L0,14.5 C0,15.327 0.673,16 1.5,16 L18.5,16 C19.327,16 20,15.327 20,14.5 L20,10.5 C20,9.881 19.806,8.951 19.557,8.383 Z M4.057,2.617 C4.198,2.294 4.648,2 5,2 L15,2 C15.352,2 15.802,2.294 15.943,2.617 L18.641,8.785 C18.671,8.854 18.701,8.933 18.73,9.018 C18.655,9.006 18.578,9 18.5,9 L12.5,9 C12.224,9 12,9.224 12,9.5 L12,10 C12,11.103 11.103,12 10,12 C8.897,12 8,11.103 8,10 L8,9.5 C8,9.224 7.776,9 7.5,9 L1.5,9 C1.422,9 1.345,9.006 1.27,9.018 C1.299,8.933 1.328,8.854 1.359,8.785 L4.057,2.617 L4.057,2.617 Z M19,14.5 C19,14.776 18.776,15 18.5,15 L1.5,15 C1.224,15 1,14.776 1,14.5 L1,10.5 C1,10.224 1.224,10 1.5,10 L7,10 C7,11.654 8.346,13 10,13 C11.654,13 13,11.654 13,10 L18.5,10 C18.776,10 19,10.224 19,10.5 L19,14.5 Z" id="notifications-inbox"></path>
                </g>
            </g>
        </g>
    </g>
</svg>