<?xml version="1.0" encoding="UTF-8"?>
<svg width="20px" height="20px" viewBox="0 0 20 20" version="1.1" xmlns="http://www.w3.org/2000/svg" xmlns:xlink="http://www.w3.org/1999/xlink">
    <!-- Generator: Sketch 41.2 (35397) - http://www.bohemiancoding.com/sketch -->
    <title>settings-icon</title>
    <desc>Created with Sketch.</desc>
    <defs></defs>
    <g id="Project" stroke="none" stroke-width="1" fill="none" fill-rule="evenodd">
        <g id="Issues-list" transform="translate(-949.000000, -15.000000)" fill="#6A6273">
            <g id="Header">
                <g id="Settings" transform="translate(949.000000, 15.000000)">
                    <g id="settings-icon">
                        <path d="M7.631,19.702 C7.59,19.702 7.548,19.697 7.506,19.686 C6.608,19.455 5.745,19.099 4.942,18.627 C4.709,18.49 4.627,18.193 4.756,17.956 C4.915,17.664 4.999,17.334 4.999,16.999 C4.999,15.896 4.102,14.999 2.999,14.999 C2.665,14.999 2.334,15.083 2.042,15.242 C1.805,15.371 1.508,15.289 1.371,15.056 C0.899,14.252 0.543,13.39 0.312,12.492 C0.247,12.238 0.389,11.977 0.637,11.894 C1.451,11.62 1.999,10.858 1.999,9.999 C1.999,9.14 1.452,8.378 0.637,8.104 C0.389,8.02 0.247,7.76 0.312,7.506 C0.543,6.608 0.899,5.745 1.371,4.942 C1.508,4.709 1.805,4.627 2.042,4.756 C2.333,4.915 2.664,4.999 2.999,4.999 C4.102,4.999 4.999,4.102 4.999,2.999 C4.999,2.665 4.915,2.334 4.756,2.042 C4.627,1.805 4.709,1.508 4.942,1.371 C5.746,0.899 6.608,0.543 7.506,0.312 C7.76,0.247 8.021,0.389 8.104,0.637 C8.378,1.451 9.14,1.999 9.999,1.999 C10.858,1.999 11.62,1.452 11.894,0.637 C11.978,0.389 12.239,0.247 12.492,0.312 C13.39,0.543 14.253,0.899 15.056,1.371 C15.289,1.508 15.371,1.805 15.242,2.042 C15.083,2.334 14.999,2.664 14.999,2.999 C14.999,4.102 15.896,4.999 16.999,4.999 C17.333,4.999 17.664,4.915 17.956,4.756 C18.193,4.627 18.49,4.709 18.627,4.942 C19.099,5.746 19.455,6.608 19.686,7.506 C19.751,7.76 19.609,8.021 19.361,8.104 C18.547,8.378 17.999,9.14 17.999,9.999 C17.999,10.858 18.546,11.62 19.361,11.894 C19.609,11.978 19.751,12.238 19.686,12.492 C19.455,13.39 19.099,14.253 18.627,15.056 C18.49,15.289 18.193,15.371 17.956,15.242 C17.664,15.083 17.334,14.999 16.999,14.999 C15.896,14.999 14.999,15.896 14.999,16.999 C14.999,17.333 15.083,17.664 15.242,17.956 C15.371,18.193 15.289,18.49 15.056,18.627 C14.252,19.099 13.39,19.455 12.492,19.686 C12.238,19.751 11.977,19.609 11.894,19.361 C11.62,18.547 10.858,17.999 9.999,17.999 C9.14,17.999 8.378,18.546 8.104,19.361 C8.034,19.568 7.84,19.702 7.63,19.702 L7.631,19.702 Z M10,17 C11.127,17 12.142,17.628 12.655,18.602 C13.175,18.441 13.681,18.233 14.165,17.98 C14.057,17.666 14.001,17.334 14.001,17 C14.001,15.346 15.347,14 17.001,14 C17.335,14 17.667,14.056 17.981,14.164 C18.234,13.68 18.443,13.175 18.603,12.654 C17.629,12.142 17.001,11.127 17.001,9.999 C17.001,8.871 17.629,7.857 18.603,7.344 C18.442,6.824 18.234,6.318 17.981,5.834 C17.667,5.942 17.335,5.998 17.001,5.998 C15.347,5.998 14.001,4.652 14.001,2.998 C14.001,2.664 14.057,2.332 14.165,2.018 C13.681,1.765 13.176,1.556 12.655,1.396 C12.143,2.37 11.128,2.998 10,2.998 C8.872,2.998 7.858,2.37 7.345,1.396 C6.825,1.556 6.319,1.765 5.835,2.018 C5.943,2.332 5.999,2.664 5.999,2.998 C5.999,4.652 4.653,5.998 2.999,5.998 C2.665,5.998 2.333,5.942 2.019,5.834 C1.766,6.318 1.557,6.823 1.397,7.344 C2.371,7.856 2.999,8.871 2.999,9.999 C2.999,11.127 2.371,12.141 1.397,12.654 C1.557,13.174 1.766,13.68 2.019,14.164 C2.333,14.056 2.665,14 2.999,14 C4.653,14 5.999,15.346 5.999,17 C5.999,17.334 5.943,17.666 5.835,17.98 C6.319,18.233 6.824,18.442 7.345,18.602 C7.857,17.628 8.872,17 10,17 L10,17 Z" id="Shape"></path>
                        <path d="M10,13 C8.346,13 7,11.654 7,10 C7,8.346 8.346,7 10,7 C11.654,7 13,8.346 13,10 C13,11.654 11.654,13 10,13 Z M10,8 C8.897,8 8,8.897 8,10 C8,11.103 8.897,12 10,12 C11.103,12 12,11.103 12,10 C12,8.897 11.103,8 10,8 Z" id="Shape"></path>
                    </g>
                </g>
            </g>
        </g>
    </g>
</svg>