<?xml version="1.0" encoding="UTF-8"?>
<svg width="11px" height="14px" viewBox="0 0 11 14" version="1.1" xmlns="http://www.w3.org/2000/svg" xmlns:xlink="http://www.w3.org/1999/xlink">
    <!-- Generator: Sketch 41.2 (35397) - http://www.bohemiancoding.com/sketch -->
    <title>alarm</title>
    <desc>Created with Sketch.</desc>
    <defs></defs>
    <g id="Symbols" stroke="none" stroke-width="1" fill="none" fill-rule="evenodd">
        <g id="Notifications" fill="#333333">
            <g id="alarm">
                <path d="M10.854577,10.3418412 C10.0155538,9.71184035 9.53443555,8.74887053 9.53443555,7.70082492 L9.53443555,5.50058923 C9.53443555,3.65752513 8.2920358,2.09902485 6.60078796,1.61937347 L6.60078796,1.10011785 C6.60078796,0.493586207 6.10720176,0 5.50067012,0 C4.89413848,0 4.40055227,0.493586207 4.40055227,1.10011785 L4.40055227,1.61937347 C2.70930444,2.09975826 1.46690468,3.65752513 1.46690468,5.50058923 L1.46690468,7.70082492 C1.46690468,8.74887053 0.985786476,9.71110694 0.146763265,10.3418412 C0.0206164191,10.4364513 -0.0307224138,10.601469 0.0191495953,10.751085 C0.0690216043,10.900701 0.209103277,11.0019119 0.366786835,11.0019119 L3.70381097,11.0019119 C3.67960838,11.1221914 3.66640696,11.2446712 3.66640696,11.3686178 C3.66640696,12.3792594 4.48929511,13.2021476 5.49993671,13.2021476 C6.5105783,13.2021476 7.33346645,12.3792594 7.33346645,11.3686178 C7.33346645,11.2454046 7.32099845,11.1221914 7.29679585,11.0019119 L10.63382,11.0019119 C10.7915035,11.0019119 10.9315852,10.900701 10.9814572,10.751085 C11.0313292,10.601469 10.9799904,10.4364513 10.8538436,10.3418412 L10.854577,10.3418412 Z M5.13396417,1.10011785 C5.13396417,0.897696163 5.29824843,0.733411898 5.50067012,0.733411898 C5.7030918,0.733411898 5.86737607,0.897696163 5.86737607,1.10011785 L5.86737607,1.48369227 C5.7463631,1.47269109 5.62461673,1.4668238 5.50067012,1.4668238 C5.37672351,1.4668238 5.25497713,1.47269109 5.13396417,1.48369227 L5.13396417,1.10011785 Z M6.60078796,11.3678844 C6.60078796,11.9744161 6.10720176,12.4680023 5.50067012,12.4680023 C4.89413848,12.4680023 4.40055227,11.9744161 4.40055227,11.3678844 C4.40055227,11.242471 4.42255463,11.1185244 4.46362569,11.0011785 L6.53771454,11.0011785 C6.57878561,11.1185244 6.60078796,11.242471 6.60078796,11.3678844 Z M1.27768441,10.2677666 C1.46470445,10.0411423 1.62752189,9.79398248 1.76100285,9.53362126 C2.05290079,8.9630268 2.20031658,8.34622739 2.20031658,7.70082492 L2.20031658,5.50058923 C2.20031658,3.68099431 3.6810752,2.20023569 5.50067012,2.20023569 C7.32026504,2.20023569 8.80102366,3.68099431 8.80102366,5.50058923 L8.80102366,7.70082492 C8.80102366,8.34622739 8.94917286,8.9630268 9.24033738,9.53362126 C9.37381835,9.79471589 9.53663579,10.0411423 9.72365582,10.2677666 L1.276951,10.2677666 L1.27768441,10.2677666 Z" id="Shape"></path>
            </g>
        </g>
    </g>
</svg>